<svg id="visual" viewBox="0 0 960 540" width="960" height="540" xmlns="http://www.w3.org/2000/svg" xmlns:xlink="http://www.w3.org/1999/xlink" version="1.1"><rect x="0" y="0" width="960" height="540" fill="#EFEEF1"></rect><path d="M0 354L16 352.3C32 350.7 64 347.3 96 349.2C128 351 160 358 192 358.2C224 358.3 256 351.7 288 345.5C320 339.3 352 333.7 384 335.5C416 337.3 448 346.7 480 351.2C512 355.7 544 355.3 576 347.5C608 339.7 640 324.3 672 318.2C704 312 736 315 768 325C800 335 832 352 864 362C896 372 928 375 944 376.5L960 378L960 541L944 541C928 541 896 541 864 541C832 541 800 541 768 541C736 541 704 541 672 541C640 541 608 541 576 541C544 541 512 541 480 541C448 541 416 541 384 541C352 541 320 541 288 541C256 541 224 541 192 541C160 541 128 541 96 541C64 541 32 541 16 541L0 541Z" fill="#bdc9cf"></path><path d="M0 350L16 359C32 368 64 386 96 394.8C128 403.7 160 403.3 192 396.2C224 389 256 375 288 371.2C320 367.3 352 373.7 384 380.2C416 386.7 448 393.3 480 394C512 394.7 544 389.3 576 390.3C608 391.3 640 398.7 672 398.8C704 399 736 392 768 392.8C800 393.7 832 402.3 864 402C896 401.7 928 392.3 944 387.7L960 383L960 541L944 541C928 541 896 541 864 541C832 541 800 541 768 541C736 541 704 541 672 541C640 541 608 541 576 541C544 541 512 541 480 541C448 541 416 541 384 541C352 541 320 541 288 541C256 541 224 541 192 541C160 541 128 541 96 541C64 541 32 541 16 541L0 541Z" fill="#acbbc2"></path><path d="M0 392L16 394.2C32 396.3 64 400.7 96 402C128 403.3 160 401.7 192 399.3C224 397 256 394 288 394.3C320 394.7 352 398.3 384 401.3C416 404.3 448 406.7 480 402.7C512 398.7 544 388.3 576 387.7C608 387 640 396 672 397.5C704 399 736 393 768 394.2C800 395.3 832 403.7 864 402.3C896 401 928 390 944 384.5L960 379L960 541L944 541C928 541 896 541 864 541C832 541 800 541 768 541C736 541 704 541 672 541C640 541 608 541 576 541C544 541 512 541 480 541C448 541 416 541 384 541C352 541 320 541 288 541C256 541 224 541 192 541C160 541 128 541 96 541C64 541 32 541 16 541L0 541Z" fill="#9cadb6"></path><path d="M0 423L16 424C32 425 64 427 96 431.8C128 436.7 160 444.3 192 448.3C224 452.3 256 452.7 288 449C320 445.3 352 437.7 384 432.5C416 427.3 448 424.7 480 427.5C512 430.3 544 438.7 576 437.2C608 435.7 640 424.3 672 420C704 415.7 736 418.3 768 419.2C800 420 832 419 864 422.5C896 426 928 434 944 438L960 442L960 541L944 541C928 541 896 541 864 541C832 541 800 541 768 541C736 541 704 541 672 541C640 541 608 541 576 541C544 541 512 541 480 541C448 541 416 541 384 541C352 541 320 541 288 541C256 541 224 541 192 541C160 541 128 541 96 541C64 541 32 541 16 541L0 541Z" fill="#8c9faa"></path><path d="M0 464L16 467.8C32 471.7 64 479.3 96 482C128 484.7 160 482.3 192 481.5C224 480.7 256 481.3 288 478.2C320 475 352 468 384 468.2C416 468.3 448 475.7 480 479.2C512 482.7 544 482.3 576 483C608 483.7 640 485.3 672 484.7C704 484 736 481 768 481.3C800 481.7 832 485.3 864 481.7C896 478 928 467 944 461.5L960 456L960 541L944 541C928 541 896 541 864 541C832 541 800 541 768 541C736 541 704 541 672 541C640 541 608 541 576 541C544 541 512 541 480 541C448 541 416 541 384 541C352 541 320 541 288 541C256 541 224 541 192 541C160 541 128 541 96 541C64 541 32 541 16 541L0 541Z" fill="#7c919e"></path><path d="M0 508L16 508.2C32 508.3 64 508.7 96 509.8C128 511 160 513 192 509C224 505 256 495 288 493.7C320 492.3 352 499.7 384 503.8C416 508 448 509 480 507.3C512 505.7 544 501.3 576 498.8C608 496.3 640 495.7 672 496.5C704 497.3 736 499.7 768 502.7C800 505.7 832 509.3 864 510C896 510.7 928 508.3 944 507.2L960 506L960 541L944 541C928 541 896 541 864 541C832 541 800 541 768 541C736 541 704 541 672 541C640 541 608 541 576 541C544 541 512 541 480 541C448 541 416 541 384 541C352 541 320 541 288 541C256 541 224 541 192 541C160 541 128 541 96 541C64 541 32 541 16 541L0 541Z" fill="#6c8492"></path></svg>